HIERARCHY
ROOT Hips
{
    OFFSET 0.000000 0.000000 0.000000
    CHANNELS 6 Xposition Yposition Zposition Zrotation Xrotation Yrotation
    JOINT Spine
    {
        OFFSET -0.000000 14.517291 0.000000
        CHANNELS 3 Zrotation Xrotation Yrotation
        JOINT Spine1
        {
            OFFSET -0.000000 37.558300 0.000000
            CHANNELS 3 Zrotation Xrotation Yrotation
            JOINT Neck
            {
                OFFSET -0.000000 37.404057 3.400369
                CHANNELS 3 Zrotation Xrotation Yrotation
                JOINT Head
                {
                    OFFSET -0.000000 24.785618 -3.540803
                    CHANNELS 3 Zrotation Xrotation Yrotation
                    End Site
                    {
                        OFFSET -0.000000 35.408028 0.000000
                    }
                }
            }
            JOINT LeftShoulder
            {
                OFFSET 6.992933 33.973492 -0.192664
                CHANNELS 3 Zrotation Xrotation Yrotation
                JOINT LeftArm
                {
                    OFFSET 21.527611 0.000000 0.000000
                    CHANNELS 3 Zrotation Xrotation Yrotation
                    JOINT LeftForeArm
                    {
                        OFFSET 56.353916 0.000000 0.000000
                        CHANNELS 3 Zrotation Xrotation Yrotation
                        JOINT LeftHand
                        {
                            OFFSET 47.774071 0.000000 0.000000
                            CHANNELS 3 Zrotation Xrotation Yrotation
                            End Site
                            {
                                OFFSET 26.556021 0.000000 0.000000
                            }
                        }
                    }
                }
            }
            JOINT RightShoulder
            {
                OFFSET -7.065357 33.973492 -0.192664
                CHANNELS 3 Zrotation Xrotation Yrotation
                JOINT RightArm
                {
                    OFFSET -21.527611 0.000000 0.000000
                    CHANNELS 3 Zrotation Xrotation Yrotation
                    JOINT RightForeArm
                    {
                        OFFSET -56.353916 0.000000 0.000000
                        CHANNELS 3 Zrotation Xrotation Yrotation
                        JOINT RightHand
                        {
                            OFFSET -47.774071 0.000000 0.000000
                            CHANNELS 3 Zrotation Xrotation Yrotation
                            End Site
                            {
                                OFFSET -26.556021 0.000000 0.000000
                            }
                        }
                    }
                }
            }
        }
    }
    JOINT LeftUpLeg
    {
        OFFSET 17.704014 0.000000 0.000000
        CHANNELS 3 Zrotation Xrotation Yrotation
        JOINT LeftLeg
        {
            OFFSET -0.000000 -81.181816 0.000000
            CHANNELS 3 Zrotation Xrotation Yrotation
            JOINT LeftFoot
            {
                OFFSET -0.000000 -62.821102 0.000000
                CHANNELS 3 Zrotation Xrotation Yrotation
                JOINT LeftToeBase
                {
                    OFFSET -0.000000 -11.507608 26.556021
                    CHANNELS 3 Zrotation Xrotation Yrotation
                    End Site
                    {
                        OFFSET -0.000000 0.000000 7.081605
                    }
                }
            }
        }
    }
    JOINT RightUpLeg
    {
        OFFSET -17.704014 0.000000 0.000000
        CHANNELS 3 Zrotation Xrotation Yrotation
        JOINT RightLeg
        {
            OFFSET -0.000000 -81.181816 0.000000
            CHANNELS 3 Zrotation Xrotation Yrotation
            JOINT RightFoot
            {
                OFFSET -0.000000 -62.821102 0.000000
                CHANNELS 3 Zrotation Xrotation Yrotation
                JOINT RightToeBase
                {
                    OFFSET -0.000000 -11.507608 26.556021
                    CHANNELS 3 Zrotation Xrotation Yrotation
                    End Site
                    {
                        OFFSET -0.000000 0.000000 7.081605
                    }
                }
            }
        }
    }
}
MOTION
Frames:    13
Frame Time:    0.008333
4.431902    145.071014    -23.978672    -3.035109    -23.743938    -4.164938    5.903769    -4.776656    13.532607    -3.035368    0.556795    4.443974    4.844057    -5.535700    -3.144189    4.134959    19.960711    -4.376686    2.193412    3.502945    -6.692178    -45.713333    20.219475    -36.516716    -7.612824    -12.499625    -130.378006    0.129875    -28.022354    -3.902320    -14.608004    3.483476    7.110724    31.271046    -8.303352    76.264450    1.470788    -21.252651    4.610414    12.783283    -16.969864    39.356598    10.404860    -15.298700    -15.094231    -15.116251    31.156519    -16.212240    -6.647377    -1.132597    38.668056    0.000000    0.000000    0.000000    3.446890    18.768017    -25.902948    2.622861    48.972729    -8.432939    -3.324386    -43.789936    -15.635401    0.000000    0.000000    0.000000    
4.402628    144.987717    -24.058752    -3.015707    -23.865171    -4.081765    5.893720    -4.851985    13.522504    -3.045009    0.582891    4.440132    4.879709    -5.532403    -3.154181    4.089389    20.042131    -4.395559    2.209548    3.512305    -6.673139    -45.746723    20.234343    -36.566570    -7.599081    -12.518479    -130.363861    0.067266    -28.005642    -3.924092    -14.611890    3.412886    7.098078    31.341795    -8.244389    76.248703    1.525616    -21.207752    4.620260    12.777261    -16.932474    39.320526    10.353088    -15.276196    -15.220175    -15.131838    31.226494    -16.200701    -6.657132    -1.151948    38.687824    0.000000    0.000000    0.000000    3.463420    18.780268    -25.937963    2.618749    49.152290    -8.454590    -3.389839    -43.854233    -15.746069    0.000000    0.000000    0.000000    
4.379930    144.905945    -24.134197    -2.993078    -24.003185    -4.018213    5.898851    -4.893870    13.504751    -3.086111    0.592007    4.433863    4.846178    -5.510653    -3.162552    4.202609    20.124464    -4.403929    2.219754    3.535730    -6.658637    -45.772598    20.195547    -36.579308    -7.619224    -12.462280    -130.390198    0.127080    -28.004961    -3.894940    -14.611905    3.439993    7.084497    31.379923    -8.206790    76.303314    1.506273    -21.163801    4.625876    12.703943    -16.906431    39.367725    10.305737    -15.226629    -15.318345    -15.146568    31.290781    -16.233343    -6.662777    -1.173712    38.726170    0.000000    0.000000    0.000000    3.470501    18.804558    -25.974998    2.581034    49.337925    -8.519822    -3.346242    -43.931812    -15.740827    0.000000    0.000000    0.000000    
4.349731    144.821396    -24.203295    -2.993237    -24.140699    -3.961422    5.888034    -4.921965    13.487625    -3.062043    0.577733    4.427325    4.818950    -5.470082    -3.156910    4.246088    20.172972    -4.394421    2.193023    3.527325    -6.649614    -45.761295    20.274391    -36.548523    -7.579815    -12.568146    -130.421082    0.075095    -28.032450    -3.901136    -14.631086    3.444562    7.083424    31.434025    -8.191900    76.337517    1.573806    -21.181330    4.666832    12.746411    -16.911818    39.376068    10.288692    -15.178217    -15.381282    -15.173762    31.367222    -16.202347    -6.632289    -1.186601    38.702999    0.000000    0.000000    0.000000    3.503207    18.831985    -26.009748    2.561506    49.571224    -8.574828    -3.323680    -44.003571    -15.773344    0.000000    0.000000    0.000000    
4.324533    144.743317    -24.258207    -2.984789    -24.285465    -3.905661    5.883786    -4.951870    13.489032    -3.072186    0.593116    4.427748    4.849394    -5.448079    -3.172256    4.236372    20.217606    -4.416900    2.214826    3.550952    -6.658588    -45.797565    20.204983    -36.559044    -7.610539    -12.467376    -130.427811    0.039810    -28.002909    -3.942651    -14.620521    3.463666    7.014026    31.465836    -8.168324    76.428284    1.595800    -21.144928    4.661085    12.757213    -16.872227    39.370110    10.264676    -15.115174    -15.431426    -15.186859    31.446835    -16.225222    -6.639572    -1.226659    38.707577    0.000000    0.000000    0.000000    3.517552    18.882891    -26.051785    2.539630    49.738907    -8.554800    -3.388298    -44.061897    -15.879198    0.000000    0.000000    0.000000    
4.313896    144.668610    -24.314987    -2.961803    -24.417030    -3.843461    5.891762    -4.983772    13.482358    -3.117934    0.597260    4.425218    4.823806    -5.411406    -3.172850    4.348657    20.274019    -4.417325    2.242955    3.544960    -6.673696    -45.775341    20.252089    -36.548691    -7.567874    -12.569262    -130.459991    0.019705    -28.021698    -3.941687    -14.622336    3.473910    7.004250    31.404016    -8.101484    76.433540    1.575201    -21.206032    4.724732    12.777370    -16.924946    39.394978    10.221307    -15.062392    -15.458610    -15.177949    31.519365    -16.249039    -6.642502    -1.239480    38.680550    0.000000    0.000000    0.000000    3.512881    18.923744    -26.066635    2.560865    49.895676    -8.594957    -3.451212    -44.130577    -15.972840    0.000000    0.000000    0.000000    
4.303531    144.599823    -24.373913    -2.953454    -24.541138    -3.789289    5.897852    -5.012078    13.481587    -3.132265    0.589752    4.424204    4.882359    -5.368213    -3.168421    4.293045    20.305544    -4.421605    2.248469    3.569852    -6.658512    -45.765633    20.232321    -36.578144    -7.580286    -12.534657    -130.453339    -0.016516    -28.011459    -3.965726    -14.639405    3.460525    7.035688    31.442078    -8.078065    76.408722    1.579544    -21.172686    4.759970    12.738283    -16.916391    39.300083    10.194528    -15.016179    -15.472019    -15.171590    31.592833    -16.266325    -6.645089    -1.247739    38.649338    0.000000    0.000000    0.000000    3.523819    18.963600    -26.077461    2.577592    50.037315    -8.640456    -3.487941    -44.193214    -16.037951    0.000000    0.000000    0.000000    
4.293274    144.527618    -24.434435    -2.949675    -24.658733    -3.741797    5.889534    -5.044069    13.482539    -3.102617    0.592675    4.424036    4.810783    -5.356869    -3.178540    4.407144    20.381004    -4.424965    2.225330    3.569492    -6.686249    -45.746334    20.235264    -36.562557    -7.574305    -12.555725    -130.472031    -0.042903    -28.024426    -3.995769    -14.682238    3.453717    7.042502    31.484392    -8.074253    76.416786    1.617450    -21.169489    4.802560    12.734561    -16.912045    39.336967    10.178165    -14.980919    -15.470931    -15.162414    31.682657    -16.338427    -6.665086    -1.281656    38.650875    0.000000    0.000000    0.000000    3.540969    18.994984    -26.082476    2.588499    50.178459    -8.692041    -3.534018    -44.255127    -16.121683    0.000000    0.000000    0.000000    
4.287229    144.455521    -24.502209    -2.922728    -24.759085    -3.681926    5.875065    -5.070289    13.482169    -3.129332    0.578819    4.423425    4.810902    -5.357750    -3.180212    4.475994    20.461411    -4.432774    2.256971    3.563873    -6.690034    -45.748249    20.215528    -36.551727    -7.573857    -12.509777    -130.464691    -0.024741    -27.980217    -4.030522    -14.671836    3.461942    7.010032    31.523901    -8.074609    76.473366    1.645614    -21.098372    4.809195    12.619697    -16.875076    39.379330    10.138096    -14.960584    -15.454863    -15.142930    31.757719    -16.378494    -6.670898    -1.281437    38.627693    0.000000    0.000000    0.000000    3.537387    18.996304    -26.097824    2.581406    50.336704    -8.745979    -3.519552    -44.331051    -16.165937    0.000000    0.000000    0.000000    
4.286927    144.387695    -24.564442    -2.906539    -24.859894    -3.619516    5.854887    -5.114275    13.469419    -3.106586    0.591782    4.418911    4.830633    -5.355702    -3.181061    4.458382    20.506426    -4.438655    2.234265    3.566312    -6.693645    -45.736397    20.193035    -36.563576    -7.587430    -12.486742    -130.469482    -0.044866    -27.987097    -4.008105    -14.687982    3.472854    7.020011    31.534109    -8.091985    76.489555    1.678437    -21.092558    4.852177    12.643765    -16.862253    39.382816    10.107736    -14.940039    -15.447907    -15.130314    31.829432    -16.413038    -6.695624    -1.282637    38.592583    0.000000    0.000000    0.000000    3.544711    19.013098    -26.111134    2.584747    50.471764    -8.808059    -3.551959    -44.398407    -16.200857    0.000000    0.000000    0.000000    
4.286577    144.321609    -24.617001    -2.897631    -24.967957    -3.574289    5.845729    -5.129936    13.457690    -3.087683    0.588177    4.414679    4.794056    -5.329449    -3.176076    4.523032    20.534916    -4.428910    2.199552    3.555848    -6.682033    -45.692055    20.246708    -36.536018    -7.568798    -12.552774    -130.483887    -0.082437    -28.014221    -4.008359    -14.747263    3.432269    7.028916    31.582733    -8.044690    76.519096    1.684544    -21.083616    4.846154    12.640583    -16.854424    39.382168    10.089499    -14.900983    -15.442993    -15.131098    31.897758    -16.441235    -6.712130    -1.318096    38.585587    0.000000    0.000000    0.000000    3.543932    19.046749    -26.087143    2.640999    50.602673    -8.829865    -3.648828    -44.463264    -16.329796    0.000000    0.000000    0.000000    
4.285044    144.258484    -24.669828    -2.897670    -25.072016    -3.525579    5.845078    -5.143474    13.455039    -3.088282    0.576430    4.413269    4.773090    -5.329743    -3.189215    4.586428    20.608330    -4.444173    2.195891    3.548921    -6.674203    -45.674229    20.260633    -36.529430    -7.578188    -12.524959    -130.448334    -0.075223    -27.995428    -4.051734    -14.755919    3.433964    7.017033    31.317286    -7.869710    76.508476    1.530039    -21.307840    4.909012    12.807487    -17.042128    39.208717    10.078367    -14.868415    -15.443804    -15.125955    31.968222    -16.505966    -6.719870    -1.343793    38.587330    0.000000    0.000000    0.000000    3.562777    19.078232    -26.087509    2.669523    50.723545    -8.831886    -3.748881    -44.513340    -16.469599    0.000000    0.000000    0.000000    
4.289780    144.206512    -24.718132    -2.892855    -25.172333    -3.480546    5.847112    -5.161999    13.464578    -3.114809    0.562499    4.415818    4.812798    -5.303890    -3.196393    4.617701    20.654444    -4.461608    2.257843    3.607494    -6.708631    -45.686787    20.247236    -36.558186    -7.562879    -12.564430    -130.433868    -0.077693    -27.996016    -4.045944    -14.711724    3.451294    7.013739    31.256184    -7.870154    76.517197    1.571486    -21.330975    4.931518    12.823528    -17.058933    39.236534    10.066001    -14.826384    -15.447167    -15.136828    32.013031    -16.534016    -6.720998    -1.349932    38.581150    0.000000    0.000000    0.000000    3.576804    19.119719    -26.081259    2.703152    50.813324    -8.876469    -3.819854    -44.572430    -16.551907    0.000000    0.000000    0.000000    
